<mxfile host="app.diagrams.net" agent="Mozilla/5.0 (Windows NT 10.0; Win64; x64) AppleWebKit/537.36 (KHTML, like Gecko) Chrome/136.0.0.0 Safari/537.36 Edg/136.0.0.0" version="27.0.6">
  <diagram name="Page-1" id="j2iqf1lN_lBpIqI17TB4">
    <mxGraphModel dx="931" dy="515" grid="1" gridSize="10" guides="1" tooltips="1" connect="1" arrows="1" fold="1" page="1" pageScale="1" pageWidth="827" pageHeight="1169" math="0" shadow="0">
      <root>
        <mxCell id="0" />
        <mxCell id="1" parent="0" />
        <UserObject label="&lt;div style=&quot;font-size: 1px&quot;&gt;&lt;p style=&quot;text-align:center;margin-left:0;margin-right:0;margin-top:0px;margin-bottom:0px;text-indent:0;vertical-align:middle;direction:ltr;&quot;&gt;&lt;font style=&quot;font-size:16px;font-family:0;color:#000000;direction:ltr;letter-spacing:0px;line-height:120%;opacity:1&quot;&gt;开始&lt;/font&gt;&lt;/p&gt;&lt;/div&gt;" tags="Background" id="w1vzb71OgvnPb8wGR7mG-3">
          <mxCell style="verticalAlign=middle;align=center;overflow=width;vsdxID=2;fillColor=#FFFFFF;gradientColor=none;shape=stencil(hZJLEoIwDIZP06VMSQZ0j3gPRop0rJQpD/H2UoMCLQ67JP2S/EnKMGnKrBYMeNMafRdPmbclwzMDkFUpjGxHi2HKMCm0ETejuyonv84saa2H7m2FgfLCOIiPNgv4iyL8410IVrJawCcMEP/D185Q6XCqzaMgiic+XCbwATaQX+wLod8W18ymTH8mB3eFHnydswjwGVjPgn5b3N3lzuJHYz5ZIZWiiy/f3ROPIfoemL4B);strokeColor=#000000;strokeWidth=2;spacingTop=-3;spacingBottom=-3;spacingLeft=-3;spacingRight=-3;points=[];labelBackgroundColor=none;rounded=0;html=1;whiteSpace=wrap;fontFamily=Times New Roman;" parent="1" vertex="1">
            <mxGeometry x="222" y="262" width="100" height="50" as="geometry" />
          </mxCell>
        </UserObject>
        <UserObject label="&lt;div style=&quot;font-size: 1px&quot;&gt;&lt;p style=&quot;text-align:center;margin-left:0;margin-right:0;margin-top:0px;margin-bottom:0px;text-indent:0;vertical-align:middle;direction:ltr;&quot;&gt;&lt;font style=&quot;font-size:16px;font-family:0;color:#000000;direction:ltr;letter-spacing:0px;line-height:120%;opacity:1&quot;&gt;判断用户名是否为空&lt;/font&gt;&lt;/p&gt;&lt;/div&gt;" tags="Background" id="w1vzb71OgvnPb8wGR7mG-4">
          <mxCell style="verticalAlign=middle;align=center;overflow=width;vsdxID=3;fillColor=#FFFFFF;gradientColor=none;shape=stencil(nZBdDoMgEIRPs+/IxhNYew8TUTYiGKT+3F7IppE2jTF9m9n9Zh4GsJp1MymQYg7eDWqlNmjAB0hJVitPISrAGrDqnFe9dy/bsp+aRCY1uiU1bJwTKSHFzq5k+2TSkM3I8hO9IAvxd+s7+pO933pFRnGO0ZExvGX+/x4vnnh4rA8=);strokeColor=#000000;strokeWidth=2;spacingTop=-3;spacingBottom=-3;spacingLeft=-3;spacingRight=-3;points=[];labelBackgroundColor=none;rounded=0;html=1;whiteSpace=wrap;fontFamily=Times New Roman;" parent="1" vertex="1">
            <mxGeometry x="216" y="512" width="112" height="74" as="geometry" />
          </mxCell>
        </UserObject>
        <UserObject label="&lt;div style=&quot;font-size: 1px&quot;&gt;&lt;p style=&quot;text-align:center;margin-left:0;margin-right:0;margin-top:0px;margin-bottom:0px;text-indent:0;vertical-align:middle;direction:ltr;&quot;&gt;&lt;font style=&quot;font-size:16px;font-family:0;color:#000000;direction:ltr;letter-spacing:0px;line-height:120%;opacity:1&quot;&gt;提示用户名不能为空&lt;/font&gt;&lt;/p&gt;&lt;/div&gt;" tags="Background" id="w1vzb71OgvnPb8wGR7mG-5">
          <mxCell style="verticalAlign=middle;align=center;overflow=width;vsdxID=4;fillColor=#FFFFFF;gradientColor=none;shape=stencil(nZBRDoQgDERP03+WHsHFe5iISyOCQdT19kIaIxq//Jtp3zTpAFaTaUYNUkwx+F6v1EYD+AUpyRkdKCYFqACrzgf9C352LfuxyWRWg1/yhT/nRE5IsZWuZtCSK8CPeI0e/hF+jV7AJM4PO7KWCyr390bSiNtEtQM=);strokeColor=#000000;strokeWidth=2;spacingTop=-3;spacingBottom=-3;spacingLeft=-3;spacingRight=-3;points=[];labelBackgroundColor=none;rounded=0;html=1;whiteSpace=wrap;fontFamily=Times New Roman;" parent="1" vertex="1">
            <mxGeometry x="49" y="516" width="100" height="70" as="geometry" />
          </mxCell>
        </UserObject>
        <UserObject label="&lt;div style=&quot;font-size: 1px&quot;&gt;&lt;p style=&quot;text-align:center;margin-left:0;margin-right:0;margin-top:0px;margin-bottom:0px;text-indent:0;vertical-align:middle;direction:ltr;&quot;&gt;&lt;font style=&quot;font-size:16px;font-family:0;color:#000000;direction:ltr;letter-spacing:0px;line-height:120%;opacity:1&quot;&gt;判断密码是否为空&lt;/font&gt;&lt;/p&gt;&lt;/div&gt;" tags="Background" id="w1vzb71OgvnPb8wGR7mG-6">
          <mxCell style="verticalAlign=middle;align=center;overflow=width;vsdxID=5;fillColor=#FFFFFF;gradientColor=none;shape=stencil(nZBdDoMgEIRPs+/IxhNYew8TUTYiGKT+3F7IppE2jTF9m9n9Zh4GsJp1MymQYg7eDWqlNmjAB0hJVitPISrAGrDqnFe9dy/bsp+aRCY1uiU1bJwTKSHFzq5k+2TSkM3I8hO9IAvxd+s7+pO933pFRnGO0ZExvGX+/x4vnnh4rA8=);strokeColor=#000000;strokeWidth=2;spacingTop=-3;spacingBottom=-3;spacingLeft=-3;spacingRight=-3;points=[];labelBackgroundColor=none;rounded=0;html=1;whiteSpace=wrap;fontFamily=Times New Roman;" parent="1" vertex="1">
            <mxGeometry x="216" y="645" width="112" height="75" as="geometry" />
          </mxCell>
        </UserObject>
        <UserObject label="&lt;div style=&quot;font-size: 1px&quot;&gt;&lt;p style=&quot;text-align:center;margin-left:0;margin-right:0;margin-top:0px;margin-bottom:0px;text-indent:0;vertical-align:middle;direction:ltr;&quot;&gt;&lt;font style=&quot;font-size:16px;font-family:0;color:#000000;direction:ltr;letter-spacing:0px;line-height:120%;opacity:1&quot;&gt;提示密码不能为空&lt;/font&gt;&lt;/p&gt;&lt;/div&gt;" tags="Background" id="w1vzb71OgvnPb8wGR7mG-7">
          <mxCell style="verticalAlign=middle;align=center;overflow=width;vsdxID=6;fillColor=#FFFFFF;gradientColor=none;shape=stencil(nZBRDoQgDERP03+WHsHFe5iISyOCQdT19kIaIxq//Jtp3zTpAFaTaUYNUkwx+F6v1EYD+AUpyRkdKCYFqACrzgf9C352LfuxyWRWg1/yhT/nRE5IsZWuZtCSK8CPeI0e/hF+jV7AJM4PO7KWCyr390bSiNtEtQM=);strokeColor=#000000;strokeWidth=2;spacingTop=-3;spacingBottom=-3;spacingLeft=-3;spacingRight=-3;points=[];labelBackgroundColor=none;rounded=0;html=1;whiteSpace=wrap;fontFamily=Times New Roman;" parent="1" vertex="1">
            <mxGeometry x="387" y="647" width="100" height="70" as="geometry" />
          </mxCell>
        </UserObject>
        <UserObject label="&lt;div style=&quot;font-size: 1px&quot;&gt;&lt;p style=&quot;text-align:center;margin-left:0;margin-right:0;margin-top:0px;margin-bottom:0px;text-indent:0;vertical-align:middle;direction:ltr;&quot;&gt;&lt;font style=&quot;font-size:16px;font-family:0;color:#000000;direction:ltr;letter-spacing:0px;line-height:120%;opacity:1&quot;&gt;检测用户名密码是否正确&lt;/font&gt;&lt;/p&gt;&lt;/div&gt;" tags="Background" id="w1vzb71OgvnPb8wGR7mG-8">
          <mxCell style="verticalAlign=middle;align=center;overflow=width;vsdxID=7;fillColor=#FFFFFF;gradientColor=none;shape=stencil(nZBdDoMgEIRPs+/IxhNYew8TUTYiGKT+3F7IppE2jTF9m9n9Zh4GsJp1MymQYg7eDWqlNmjAB0hJVitPISrAGrDqnFe9dy/bsp+aRCY1uiU1bJwTKSHFzq5k+2TSkM3I8hO9IAvxd+s7+pO933pFRnGO0ZExvGX+/x4vnnh4rA8=);strokeColor=#000000;strokeWidth=2;spacingTop=-3;spacingBottom=-3;spacingLeft=-3;spacingRight=-3;points=[];labelBackgroundColor=none;rounded=0;html=1;whiteSpace=wrap;fontFamily=Times New Roman;" parent="1" vertex="1">
            <mxGeometry x="216" y="777" width="112" height="75" as="geometry" />
          </mxCell>
        </UserObject>
        <UserObject label="&lt;div style=&quot;font-size: 1px&quot;&gt;&lt;p style=&quot;text-align:center;margin-left:0;margin-right:0;margin-top:0px;margin-bottom:0px;text-indent:0;vertical-align:middle;direction:ltr;&quot;&gt;&lt;font style=&quot;font-size:16px;font-family:0;color:#000000;direction:ltr;letter-spacing:0px;line-height:120%;opacity:1&quot;&gt;登录成功&lt;/font&gt;&lt;/p&gt;&lt;/div&gt;" tags="Background" id="w1vzb71OgvnPb8wGR7mG-9">
          <mxCell style="verticalAlign=middle;align=center;overflow=width;vsdxID=8;fillColor=#FFFFFF;gradientColor=none;shape=stencil(nZBRDoQgDERP03+WHsHFe5iISyOCQdT19kIaIxq//Jtp3zTpAFaTaUYNUkwx+F6v1EYD+AUpyRkdKCYFqACrzgf9C352LfuxyWRWg1/yhT/nRE5IsZWuZtCSK8CPeI0e/hF+jV7AJM4PO7KWCyr390bSiNtEtQM=);strokeColor=#000000;strokeWidth=2;spacingTop=-3;spacingBottom=-3;spacingLeft=-3;spacingRight=-3;points=[];labelBackgroundColor=none;rounded=0;html=1;whiteSpace=wrap;fontFamily=Times New Roman;" parent="1" vertex="1">
            <mxGeometry x="222" y="909" width="100" height="70" as="geometry" />
          </mxCell>
        </UserObject>
        <UserObject label="&lt;div style=&quot;font-size: 1px&quot;&gt;&lt;p style=&quot;text-align:center;margin-left:0;margin-right:0;margin-top:0px;margin-bottom:0px;text-indent:0;vertical-align:middle;direction:ltr;&quot;&gt;&lt;font style=&quot;font-size:16px;font-family:0;color:#000000;direction:ltr;letter-spacing:0px;line-height:120%;opacity:1&quot;&gt;结束&lt;/font&gt;&lt;/p&gt;&lt;/div&gt;" tags="Background" id="w1vzb71OgvnPb8wGR7mG-10">
          <mxCell style="verticalAlign=middle;align=center;overflow=width;vsdxID=9;fillColor=#FFFFFF;gradientColor=none;shape=stencil(hZJLEoIwDIZP06VMSQZ0j3gPRop0rJQpD/H2UoMCLQ67JP2S/EnKMGnKrBYMeNMafRdPmbclwzMDkFUpjGxHi2HKMCm0ETejuyonv84saa2H7m2FgfLCOIiPNgv4iyL8410IVrJawCcMEP/D185Q6XCqzaMgiic+XCbwATaQX+wLod8W18ymTH8mB3eFHnydswjwGVjPgn5b3N3lzuJHYz5ZIZWiiy/f3ROPIfoemL4B);strokeColor=#000000;strokeWidth=2;spacingTop=-3;spacingBottom=-3;spacingLeft=-3;spacingRight=-3;points=[];labelBackgroundColor=none;rounded=0;html=1;whiteSpace=wrap;fontFamily=Times New Roman;" parent="1" vertex="1">
            <mxGeometry x="222" y="1030" width="100" height="50" as="geometry" />
          </mxCell>
        </UserObject>
        <UserObject label="&lt;div style=&quot;font-size: 1px&quot;&gt;&lt;p style=&quot;text-align:center;margin-left:0;margin-right:0;margin-top:0px;margin-bottom:0px;text-indent:0;vertical-align:middle;direction:ltr;&quot;&gt;&lt;font style=&quot;font-size:16px;font-family:0;color:#000000;direction:ltr;letter-spacing:0px;line-height:120%;opacity:1&quot;&gt;提示用户名密码错误&lt;/font&gt;&lt;/p&gt;&lt;/div&gt;" tags="Background" id="w1vzb71OgvnPb8wGR7mG-11">
          <mxCell style="verticalAlign=middle;align=center;overflow=width;vsdxID=10;fillColor=#FFFFFF;gradientColor=none;shape=stencil(nZBRDoQgDERP03+WHsHFe5iISyOCQdT19kIaIxq//Jtp3zTpAFaTaUYNUkwx+F6v1EYD+AUpyRkdKCYFqACrzgf9C352LfuxyWRWg1/yhT/nRE5IsZWuZtCSK8CPeI0e/hF+jV7AJM4PO7KWCyr390bSiNtEtQM=);strokeColor=#000000;strokeWidth=2;spacingTop=-3;spacingBottom=-3;spacingLeft=-3;spacingRight=-3;points=[];labelBackgroundColor=none;rounded=0;html=1;whiteSpace=wrap;fontFamily=Times New Roman;" parent="1" vertex="1">
            <mxGeometry x="387" y="779.5" width="100" height="70" as="geometry" />
          </mxCell>
        </UserObject>
        <UserObject label="&lt;div style=&quot;&quot;&gt;&lt;p style=&quot;text-align: center; margin: 0px; text-indent: 0px; vertical-align: middle; direction: ltr;&quot;&gt;&lt;font style=&quot;color: rgb(0, 0, 0); direction: ltr; letter-spacing: 0px; line-height: 120%; opacity: 1; font-size: 16px;&quot;&gt;否&lt;/font&gt;&lt;/p&gt;&lt;/div&gt;" tags="Background" id="w1vzb71OgvnPb8wGR7mG-12">
          <mxCell style="vsdxID=11;edgeStyle=none;startArrow=none;endArrow=block;startSize=5;endSize=5;strokeWidth=2;spacingTop=0;spacingBottom=0;spacingLeft=0;spacingRight=0;verticalAlign=middle;html=1;labelBackgroundColor=#ffffff;rounded=0;align=center;exitX=0.5;exitY=1;exitDx=0;exitDy=0;exitPerimeter=0;entryX=0.5;entryY=0.013333333333333334;entryDx=0;entryDy=0;entryPerimeter=0;fontFamily=Times New Roman;" parent="1" source="w1vzb71OgvnPb8wGR7mG-6" target="w1vzb71OgvnPb8wGR7mG-8" edge="1">
            <mxGeometry relative="1" as="geometry">
              <mxPoint as="offset" />
              <Array as="points">
                <mxPoint x="272" y="749.04" />
                <mxPoint x="272" y="749.04" />
              </Array>
            </mxGeometry>
          </mxCell>
        </UserObject>
        <UserObject label="&lt;div style=&quot;&quot;&gt;&lt;p style=&quot;text-align: center; margin: 0px; text-indent: 0px; vertical-align: middle; direction: ltr;&quot;&gt;&lt;font style=&quot;color: rgb(0, 0, 0); direction: ltr; letter-spacing: 0px; line-height: 120%; opacity: 1; font-size: 16px;&quot;&gt;是&lt;/font&gt;&lt;/p&gt;&lt;/div&gt;" tags="Background" id="w1vzb71OgvnPb8wGR7mG-13">
          <mxCell style="vsdxID=12;edgeStyle=none;startArrow=none;endArrow=block;startSize=5;endSize=5;strokeWidth=2;spacingTop=0;spacingBottom=0;spacingLeft=0;spacingRight=0;verticalAlign=middle;html=1;labelBackgroundColor=#ffffff;rounded=0;align=center;exitX=1;exitY=0.49333333333333335;exitDx=0;exitDy=0;exitPerimeter=0;entryX=0;entryY=0.5;entryDx=0;entryDy=0;entryPerimeter=0;fontFamily=Times New Roman;" parent="1" source="w1vzb71OgvnPb8wGR7mG-6" target="w1vzb71OgvnPb8wGR7mG-7" edge="1">
            <mxGeometry relative="1" as="geometry">
              <mxPoint x="-4" y="-1" as="offset" />
              <Array as="points">
                <mxPoint x="357.5" y="682" />
                <mxPoint x="357.5" y="682" />
              </Array>
            </mxGeometry>
          </mxCell>
        </UserObject>
        <UserObject label="" tags="Background" id="w1vzb71OgvnPb8wGR7mG-14">
          <mxCell style="vsdxID=13;edgeStyle=none;startArrow=none;endArrow=block;startSize=5;endSize=5;strokeWidth=2;spacingTop=0;spacingBottom=0;spacingLeft=0;spacingRight=0;verticalAlign=middle;html=1;labelBackgroundColor=#ffffff;rounded=0;exitX=0.5;exitY=1;exitDx=0;exitDy=0;exitPerimeter=0;entryX=0.5;entryY=0;entryDx=0;entryDy=0;entryPerimeter=0;fontFamily=Times New Roman;" parent="1" source="w1vzb71OgvnPb8wGR7mG-9" target="w1vzb71OgvnPb8wGR7mG-10" edge="1">
            <mxGeometry relative="1" as="geometry">
              <mxPoint y="129" as="offset" />
              <Array as="points">
                <mxPoint x="272" y="1007.5" />
                <mxPoint x="272" y="1007.5" />
              </Array>
            </mxGeometry>
          </mxCell>
        </UserObject>
        <UserObject label="&lt;div style=&quot;&quot;&gt;&lt;p style=&quot;text-align: center; margin: 0px; text-indent: 0px; vertical-align: middle; direction: ltr;&quot;&gt;&lt;font style=&quot;color: rgb(0, 0, 0); direction: ltr; letter-spacing: 0px; line-height: 120%; opacity: 1; font-size: 16px;&quot;&gt;否&lt;/font&gt;&lt;/p&gt;&lt;/div&gt;" tags="Background" id="w1vzb71OgvnPb8wGR7mG-15">
          <mxCell style="vsdxID=14;edgeStyle=none;startArrow=none;endArrow=block;startSize=5;endSize=5;strokeWidth=2;spacingTop=0;spacingBottom=0;spacingLeft=0;spacingRight=0;verticalAlign=middle;html=1;labelBackgroundColor=#ffffff;rounded=0;align=center;exitX=0.5;exitY=1;exitDx=0;exitDy=0;exitPerimeter=0;entryX=0.5;entryY=0;entryDx=0;entryDy=0;entryPerimeter=0;fontFamily=Times New Roman;" parent="1" source="w1vzb71OgvnPb8wGR7mG-4" target="w1vzb71OgvnPb8wGR7mG-6" edge="1">
            <mxGeometry relative="1" as="geometry">
              <mxPoint y="-5" as="offset" />
              <Array as="points">
                <mxPoint x="272" y="615.25" />
                <mxPoint x="272" y="615.25" />
              </Array>
            </mxGeometry>
          </mxCell>
        </UserObject>
        <UserObject label="" tags="Background" id="w1vzb71OgvnPb8wGR7mG-16">
          <mxCell style="vsdxID=15;edgeStyle=none;startArrow=none;endArrow=block;startSize=5;endSize=5;strokeWidth=2;spacingTop=0;spacingBottom=0;spacingLeft=0;spacingRight=0;verticalAlign=middle;html=1;labelBackgroundColor=#ffffff;rounded=0;exitX=0.5;exitY=1;exitDx=0;exitDy=0;exitPerimeter=0;entryX=0.5;entryY=0;entryDx=0;entryDy=0;entryPerimeter=0;fontFamily=Times New Roman;" parent="1" source="w1vzb71OgvnPb8wGR7mG-3" edge="1">
            <mxGeometry relative="1" as="geometry">
              <mxPoint y="126" as="offset" />
              <Array as="points">
                <mxPoint x="272" y="337" />
                <mxPoint x="272" y="337" />
              </Array>
              <mxPoint x="272" y="362" as="targetPoint" />
            </mxGeometry>
          </mxCell>
        </UserObject>
        <UserObject label="" tags="Background" id="w1vzb71OgvnPb8wGR7mG-17">
          <mxCell style="vsdxID=16;edgeStyle=none;startArrow=none;endArrow=block;startSize=5;endSize=5;strokeWidth=2;spacingTop=0;spacingBottom=0;spacingLeft=0;spacingRight=0;verticalAlign=middle;html=1;labelBackgroundColor=#ffffff;rounded=0;exitX=0.5;exitY=1;exitDx=0;exitDy=0;exitPerimeter=0;entryX=0.5;entryY=0;entryDx=0;entryDy=0;entryPerimeter=0;fontFamily=Times New Roman;" parent="1" target="w1vzb71OgvnPb8wGR7mG-4" edge="1">
            <mxGeometry relative="1" as="geometry">
              <mxPoint y="141" as="offset" />
              <Array as="points">
                <mxPoint x="272" y="472" />
                <mxPoint x="272" y="472" />
              </Array>
              <mxPoint x="272" y="432" as="sourcePoint" />
            </mxGeometry>
          </mxCell>
        </UserObject>
        <UserObject label="" tags="Background" id="w1vzb71OgvnPb8wGR7mG-18">
          <mxCell style="vsdxID=17;edgeStyle=none;startArrow=none;endArrow=block;startSize=5;endSize=5;strokeWidth=2;spacingTop=0;spacingBottom=0;spacingLeft=0;spacingRight=0;verticalAlign=middle;html=1;labelBackgroundColor=#ffffff;rounded=0;exitX=0.5;exitY=0;exitDx=0;exitDy=0;exitPerimeter=0;entryX=0;entryY=0.5;entryDx=0;entryDy=0;entryPerimeter=0;fontFamily=Times New Roman;" parent="1" source="w1vzb71OgvnPb8wGR7mG-5" edge="1">
            <mxGeometry relative="1" as="geometry">
              <mxPoint x="-2" y="101" as="offset" />
              <Array as="points">
                <mxPoint x="99" y="396.5" />
              </Array>
              <mxPoint x="222" y="397" as="targetPoint" />
            </mxGeometry>
          </mxCell>
        </UserObject>
        <UserObject label="&lt;div style=&quot;&quot;&gt;&lt;p style=&quot;text-align: center; margin: 0px; text-indent: 0px; vertical-align: middle; direction: ltr;&quot;&gt;&lt;font style=&quot;color: rgb(0, 0, 0); direction: ltr; letter-spacing: 0px; line-height: 120%; opacity: 1; font-size: 16px;&quot;&gt;是&lt;/font&gt;&lt;/p&gt;&lt;/div&gt;" tags="Background" id="w1vzb71OgvnPb8wGR7mG-19">
          <mxCell style="vsdxID=18;edgeStyle=none;startArrow=none;endArrow=block;startSize=5;endSize=5;strokeWidth=2;spacingTop=0;spacingBottom=0;spacingLeft=0;spacingRight=0;verticalAlign=middle;html=1;labelBackgroundColor=#ffffff;rounded=0;align=center;exitX=0;exitY=0.5;exitDx=0;exitDy=0;exitPerimeter=0;entryX=1;entryY=0.5;entryDx=0;entryDy=0;entryPerimeter=0;fontFamily=Times New Roman;" parent="1" source="w1vzb71OgvnPb8wGR7mG-4" target="w1vzb71OgvnPb8wGR7mG-5" edge="1">
            <mxGeometry relative="1" as="geometry">
              <mxPoint x="6" y="-2" as="offset" />
              <Array as="points">
                <mxPoint x="182.5" y="549" />
                <mxPoint x="182.5" y="551.25" />
              </Array>
            </mxGeometry>
          </mxCell>
        </UserObject>
        <UserObject label="&lt;div style=&quot;&quot;&gt;&lt;p style=&quot;text-align: center; margin: 0px; text-indent: 0px; vertical-align: middle; direction: ltr;&quot;&gt;&lt;font style=&quot;color: rgb(0, 0, 0); direction: ltr; letter-spacing: 0px; line-height: 120%; opacity: 1; font-size: 16px;&quot;&gt;是&lt;/font&gt;&lt;/p&gt;&lt;/div&gt;" tags="Background" id="w1vzb71OgvnPb8wGR7mG-20">
          <mxCell style="vsdxID=19;edgeStyle=none;startArrow=none;endArrow=block;startSize=5;endSize=5;strokeWidth=2;spacingTop=0;spacingBottom=0;spacingLeft=0;spacingRight=0;verticalAlign=middle;html=1;labelBackgroundColor=#ffffff;rounded=0;align=center;exitX=0.5;exitY=1;exitDx=0;exitDy=0;exitPerimeter=0;entryX=0.5;entryY=0;entryDx=0;entryDy=0;entryPerimeter=0;fontFamily=Times New Roman;" parent="1" source="w1vzb71OgvnPb8wGR7mG-8" target="w1vzb71OgvnPb8wGR7mG-9" edge="1">
            <mxGeometry relative="1" as="geometry">
              <mxPoint y="-9" as="offset" />
              <Array as="points">
                <mxPoint x="272" y="880.5" />
                <mxPoint x="272" y="880.5" />
              </Array>
            </mxGeometry>
          </mxCell>
        </UserObject>
        <UserObject label="&lt;div style=&quot;&quot;&gt;&lt;p style=&quot;text-align: center; margin: 0px; text-indent: 0px; vertical-align: middle; direction: ltr;&quot;&gt;&lt;font style=&quot;color: rgb(0, 0, 0); direction: ltr; letter-spacing: 0px; line-height: 120%; opacity: 1; font-size: 16px;&quot;&gt;否&lt;/font&gt;&lt;/p&gt;&lt;/div&gt;" tags="Background" id="w1vzb71OgvnPb8wGR7mG-21">
          <mxCell style="vsdxID=20;edgeStyle=none;startArrow=none;endArrow=block;startSize=5;endSize=5;strokeWidth=2;spacingTop=0;spacingBottom=0;spacingLeft=0;spacingRight=0;verticalAlign=middle;html=1;labelBackgroundColor=#ffffff;rounded=0;align=center;exitX=1;exitY=0.49333333333333335;exitDx=0;exitDy=0;exitPerimeter=0;entryX=0;entryY=0.5;entryDx=0;entryDy=0;entryPerimeter=0;fontFamily=Times New Roman;" parent="1" source="w1vzb71OgvnPb8wGR7mG-8" target="w1vzb71OgvnPb8wGR7mG-11" edge="1">
            <mxGeometry relative="1" as="geometry">
              <mxPoint x="-11" y="-1" as="offset" />
              <Array as="points">
                <mxPoint x="357.5" y="814" />
                <mxPoint x="357.5" y="814" />
              </Array>
            </mxGeometry>
          </mxCell>
        </UserObject>
        <UserObject label="" tags="Background" id="w1vzb71OgvnPb8wGR7mG-22">
          <mxCell style="vsdxID=21;edgeStyle=none;startArrow=none;endArrow=block;startSize=5;endSize=5;strokeWidth=2;spacingTop=0;spacingBottom=0;spacingLeft=0;spacingRight=0;verticalAlign=middle;html=1;labelBackgroundColor=#ffffff;rounded=0;exitX=1;exitY=0.5;exitDx=0;exitDy=0;exitPerimeter=0;entryX=1;entryY=0.5;entryDx=0;entryDy=0;entryPerimeter=0;fontFamily=Times New Roman;" parent="1" source="w1vzb71OgvnPb8wGR7mG-11" edge="1">
            <mxGeometry relative="1" as="geometry">
              <mxPoint x="-30" y="-25" as="offset" />
              <Array as="points">
                <mxPoint x="516.7" y="814" />
                <mxPoint x="516.7" y="396.5" />
              </Array>
              <mxPoint x="322" y="397" as="targetPoint" />
            </mxGeometry>
          </mxCell>
        </UserObject>
        <UserObject label="" tags="Background" id="w1vzb71OgvnPb8wGR7mG-23">
          <mxCell style="vsdxID=22;edgeStyle=none;startArrow=none;endArrow=block;startSize=5;endSize=5;strokeWidth=2;spacingTop=0;spacingBottom=0;spacingLeft=0;spacingRight=0;verticalAlign=middle;html=1;labelBackgroundColor=#ffffff;rounded=0;exitX=0.5;exitY=0;exitDx=0;exitDy=0;exitPerimeter=0;entryX=1;entryY=0.5;entryDx=0;entryDy=0;entryPerimeter=0;fontFamily=Times New Roman;" parent="1" source="w1vzb71OgvnPb8wGR7mG-7" edge="1">
            <mxGeometry relative="1" as="geometry">
              <mxPoint y="34" as="offset" />
              <Array as="points">
                <mxPoint x="437" y="396.5" />
              </Array>
              <mxPoint x="322" y="397" as="targetPoint" />
            </mxGeometry>
          </mxCell>
        </UserObject>
        <mxCell id="CS0528aZhkJmmkAVxjKR-1" value="&lt;span style=&quot;font-family: &amp;quot;Times New Roman&amp;quot;; font-size: 16px;&quot;&gt;输入用户名以及密码&lt;/span&gt;" style="shape=parallelogram;perimeter=parallelogramPerimeter;whiteSpace=wrap;html=1;fixedSize=1;" vertex="1" parent="1">
          <mxGeometry x="212" y="363" width="120" height="68" as="geometry" />
        </mxCell>
      </root>
    </mxGraphModel>
  </diagram>
</mxfile>
